<svg width="48" height="13" viewBox="0 0 48 13" fill="none" xmlns="http://www.w3.org/2000/svg">
<g clip-path="url(#clip0_1_15)">
<path d="M6.60014 12.1621C5.87808 12.2891 5.14331 12.3272 4.38323 12.4287L2.06489 5.62405V12.7207C1.34283 12.7969 0.684094 12.8984 0 13V0H1.92563L4.56056 7.37609V0H6.60014V12.1621ZM10.5907 4.76074C11.3761 4.76074 12.5796 4.72265 13.3017 4.72265V6.75385C12.4022 6.75385 11.3508 6.75385 10.5907 6.79195V9.81349C11.7815 9.73734 12.9723 9.63569 14.1757 9.59759V11.5526L8.56369 11.997V0H14.1757V2.03125H10.5907V4.76074ZM21.7133 2.0313H19.6104V11.375C18.9263 11.375 18.2423 11.375 17.5836 11.4004V2.0313H15.4807V0H21.7134L21.7133 2.0313ZM25.0071 4.62113H27.7815V6.65234H25.0071V11.2608H23.018V0H28.6809V2.03125H25.0071V4.62113ZM31.9746 9.48339C33.1275 9.50871 34.2929 9.59773 35.4204 9.6611V11.667C33.6089 11.5526 31.7973 11.4385 29.9477 11.4004V0H31.9746V9.48339ZM37.1306 11.8066C37.7767 11.8448 38.4608 11.8829 39.1195 11.9589V0H37.1306V11.8066ZM48 0L45.4283 6.18264L48 13C47.2398 12.8984 46.4797 12.7588 45.7196 12.6318L44.2628 8.87408L42.7808 12.3272C42.0459 12.2002 41.3365 12.1621 40.6019 12.0605L43.2115 6.1064L40.8551 0H43.034L44.3641 3.41505L45.783 0L48 0Z" fill="#D81F26"/>
</g>
<defs>
<clipPath id="clip0_1_15">
<rect width="48" height="13" fill="white"/>
</clipPath>
</defs>
</svg>
